<?xml version="1.0" encoding="utf-8"?>
<!-- Generator: Adobe Illustrator 22.0.0, SVG Export Plug-In . SVG Version: 6.00 Build 0)  -->
<svg version="1.1" id="Layer_1" xmlns="http://www.w3.org/2000/svg" xmlns:xlink="http://www.w3.org/1999/xlink" x="0px" y="0px"
	 viewBox="0 0 62 62" style="enable-background:new 0 0 62 62;" xml:space="preserve">
<style type="text/css">
	.st0{fill:#FFFFFF;}
	.st1{opacity:0.21;}
	.st2{fill:#1D1C1A;}
	.st3{fill:#E63D33;}
	.st4{fill:#AE202B;}
	.st5{fill:#FFF7F7;}
	.st6{opacity:0.1;}
	.st7{fill:#7393CB;}
	.st8{fill:#1C1C1A;}
	.st9{fill:#E53E33;}
	.st10{fill:#AD202B;}
	.st11{opacity:0.1;fill:#AD202B;}
	.st12{fill:#C22329;}
	.st13{opacity:0.1;fill:#C22329;}
	.st14{fill:#FDF6F6;}
	.st15{clip-path:url(#SVGID_4_);}
	.st16{fill:#DDE8F4;}
	.st17{display:none;fill:none;stroke:#1C1C1A;stroke-width:2;stroke-miterlimit:10;}
	.st18{fill:#FDF6F6;stroke:#1C1C1A;stroke-width:0.5;stroke-miterlimit:10;}
	.st19{fill:none;stroke:#1C1C1A;stroke-miterlimit:10;}
	.st20{fill:#F7E3E2;}
	.st21{opacity:0.21;fill:#1C1C1A;}
	.st22{fill:#C32228;}
	.st23{fill:#FFF7F7;stroke:#1C1C1A;stroke-width:0.15;stroke-miterlimit:10;}
	.st24{fill:#C0252A;}
	.st25{fill:#0B1C2B;}
	.st26{opacity:0.1;fill:#1C1C1A;}
	.st27{fill:#696969;}
	.st28{fill:#FFF7F7;stroke:#1C1C1A;stroke-width:0.5;stroke-miterlimit:10;}
	.st29{fill:none;}
	.st30{fill:#FFF8F9;stroke:#1D1C1A;stroke-width:0.25;stroke-miterlimit:10;}
	.st31{fill:#E63D32;}
	.st32{clip-path:url(#SVGID_12_);}
	.st33{fill:#E63D32;stroke:#1D1C1A;stroke-width:0.5;stroke-miterlimit:10;}
	.st34{fill:#E63D34;}
	.st35{fill:#2E2E2E;}
	.st36{fill:#AA202B;}
	.st37{clip-path:url(#SVGID_16_);}
	.st38{fill:#FFF8F9;}
	.st39{fill:#231F20;}
	.st40{fill:#242A3C;}
	.st41{clip-path:url(#SVGID_20_);}
	.st42{clip-path:url(#SVGID_22_);}
	.st43{clip-path:url(#SVGID_24_);fill:#1D1C1A;}
	.st44{clip-path:url(#SVGID_26_);}
	.st45{clip-path:url(#SVGID_28_);fill:#1D1C1A;}
	.st46{fill:#FFFFFF;stroke:#1D1C1A;stroke-width:0.5;stroke-miterlimit:10;}
	.st47{fill:#D7E0E5;}
	.st48{opacity:0.5;fill:#D7E0E5;}
	.st49{clip-path:url(#SVGID_32_);}
	.st50{fill:#F6F7F7;stroke:#1C1C1A;stroke-width:0.5;stroke-miterlimit:10;}
	.st51{fill:#FFFFFF;stroke:#231F20;stroke-width:0.5;stroke-miterlimit:10;}
	.st52{fill:#D8E0E6;stroke:#1D1C1A;stroke-width:0.5;stroke-miterlimit:10;}
	.st53{fill:none;stroke:#CDCA87;stroke-width:0.5;stroke-miterlimit:10;}
	.st54{clip-path:url(#SVGID_34_);}
	.st55{clip-path:url(#SVGID_36_);fill:#1D1C1A;}
	.st56{clip-path:url(#SVGID_38_);}
	.st57{clip-path:url(#SVGID_40_);fill:#1D1C1A;}
	.st58{opacity:0.1;fill:#1D1C1A;}
	.st59{clip-path:url(#SVGID_44_);}
	.st60{clip-path:url(#SVGID_46_);fill:#1D1C1A;}
	.st61{clip-path:url(#SVGID_48_);}
	.st62{clip-path:url(#SVGID_50_);fill:#1D1C1A;}
	.st63{clip-path:url(#SVGID_54_);}
	.st64{clip-path:url(#SVGID_56_);}
	.st65{clip-path:url(#SVGID_58_);fill:#1D1C1A;}
	.st66{clip-path:url(#SVGID_60_);}
	.st67{clip-path:url(#SVGID_62_);fill:#1D1C1A;}
	.st68{clip-path:url(#SVGID_66_);}
	.st69{clip-path:url(#SVGID_68_);fill:#1D1C1A;}
	.st70{clip-path:url(#SVGID_70_);}
	.st71{clip-path:url(#SVGID_72_);fill:#1D1C1A;}
	.st72{clip-path:url(#SVGID_76_);}
	.st73{clip-path:url(#SVGID_78_);}
	.st74{clip-path:url(#SVGID_80_);fill:#1D1C1A;}
	.st75{clip-path:url(#SVGID_82_);}
	.st76{clip-path:url(#SVGID_84_);fill:#1D1C1A;}
	.st77{clip-path:url(#SVGID_88_);}
	.st78{fill:#FDF6F6;stroke:#1C1C1A;stroke-width:0.25;stroke-miterlimit:10;}
	.st79{clip-path:url(#SVGID_92_);}
	.st80{clip-path:url(#SVGID_94_);}
</style>
<g>
	<g>
		<g>
			<g>
				<g>
					<g>
						<path class="st33" d="M42.3,37.8c-2.4-4.7-6.5-8.1-11-10.8c-4.3-2.6-9.1-5.5-14.3-4.8c-0.8,0.1-1.6,0.4-2.4,0.6
							c0,0-5,1.5-7.2,6.1c-1.2,2.7-1.1,5.8,0.5,8.3c2.7,4.4,8,5,9.1,5c1,0.1,15.3,0,22.6-0.1C41.9,42.2,43.4,39.8,42.3,37.8z"/>
					</g>
					<g>
						<circle class="st14" cx="19.2" cy="32.3" r="7.4"/>
						<path class="st40" d="M11.6,32.3c0-4.2,3.4-7.5,7.5-7.5s7.5,3.4,7.5,7.5s-3.4,7.5-7.5,7.5S11.6,36.4,11.6,32.3z M12.4,32.3
							c0,3.7,3,6.8,6.8,6.8s6.8-3,6.8-6.8c0-3.7-3-6.8-6.8-6.8S12.4,28.6,12.4,32.3z"/>
					</g>
					<g>
						<circle class="st5" cx="19.2" cy="32.3" r="4.8"/>
						<path class="st40" d="M14.4,32.3c0-2.7,2.2-4.8,4.8-4.8s4.8,2.2,4.8,4.8c0,2.7-2.2,4.8-4.8,4.8S14.4,34.9,14.4,32.3z
							 M14.9,32.3c0,2.4,1.9,4.3,4.3,4.3s4.3-1.9,4.3-4.3c0-2.4-1.9-4.3-4.3-4.3S14.9,29.9,14.9,32.3z"/>
					</g>
					<g>
						<circle class="st14" cx="33.6" cy="34.7" r="5.1"/>
						<path class="st40" d="M28.5,34.7c0-2.8,2.3-5.1,5.1-5.1s5.1,2.3,5.1,5.1c0,2.8-2.3,5.1-5.1,5.1S28.5,37.5,28.5,34.7z
							 M29.2,34.7c0,2.4,2,4.4,4.4,4.4c2.4,0,4.4-2,4.4-4.4c0-2.4-2-4.4-4.4-4.4C31.1,30.4,29.2,32.3,29.2,34.7z"/>
					</g>
				</g>
			</g>
			<g>
				<path class="st30" d="M2.3,19.3l0.5,0.3l1.2,0.6c0.3,0.1,0.5,0.3,0.7,0.5c0.1,0.1,0.3,0.3,0.4,0.5l1,1.6c0.1,0.1,0.3,0.1,0.4,0
					l0.7-1.5c0.1-0.3,0.3-0.5,0.5-0.8c0.2-0.3,0.5-0.5,0.8-0.7L9,19.5l1-0.6c0.1-0.1,0.1-0.3,0-0.4l-1.6-0.8c-0.5-0.3-1-0.7-1.3-1.2
					l-1-1.5c-0.1-0.1-0.3-0.1-0.4,0l-0.8,1.7c-0.2,0.5-0.6,0.8-1,1.1l-1.6,1C2.2,19,2.2,19.2,2.3,19.3z"/>
				<path class="st30" d="M10,23.5l1.2,0.6c0.3,0.2,0.6,0.4,0.8,0.7l0.5,0.8l0.2,0.4c0.1,0.1,0.2,0.1,0.2,0l0-0.1l0.5-1
					c0-0.1,0.1-0.1,0.1-0.2c0.2-0.3,0.5-0.6,0.8-0.8l1-0.6c0.1-0.1,0.1-0.2,0-0.2l-1.1-0.5c-0.4-0.2-0.7-0.5-0.9-0.8l-0.7-1.1
					c-0.1-0.1-0.2-0.1-0.2,0l-0.6,1.2c-0.2,0.3-0.4,0.6-0.7,0.8L10.3,23L10,23.2C9.9,23.3,9.9,23.4,10,23.5z"/>
			</g>
		</g>
	</g>
	<g>
		<path class="st1" d="M38.3,47.1l1.6,0c0.4,0,0.6-0.3,0.6-0.6l0-1.2c0.4,0.7,1.2,1.3,2.1,1.2l11.3-0.1c2.4,0,3.5-0.6,4.2-2.4
			l1.2-0.5c0.5-0.2,0.6-0.9,0-1.2l-1.3-0.6c-0.8-1.8-1.9-2.4-4.3-2.3l-11.3,0.1c-0.9,0-1.7,0.5-2.1,1.3l0-1.2c0-0.3-0.3-0.6-0.6-0.6
			l-1.6,0l-1.4,0.9l0,0c0-0.1-0.2-0.2-0.3-0.1L36,40.3l-0.5-0.5c-0.1-0.1-0.4-0.1-0.5,0l-0.4,0.5L34,39.8c-0.1-0.1-0.3-0.1-0.5,0
			L33,40.4c0,0-0.3-0.4-0.7-0.3c-0.2,0.1-0.2,0.4-0.2,0.5l0,0.5L30,41.9l-0.8,0.3c-0.3,0.1-0.5,0.4-0.5,0.7l0,0.2
			c0,0.3,0.2,0.6,0.5,0.7l0.8,0.3l2.2,0.9l0,0.6c0,0.1,0,0.4,0.2,0.5c0.3,0.1,0.7-0.3,0.7-0.3l0.5,0.6c0.1,0.1,0.3,0.1,0.4,0
			l0.5-0.6l0.6,0.6c0.1,0.1,0.3,0.1,0.4,0l0.6-0.6l0.6,0.6c0.1,0.1,0.2,0,0.2-0.1l0,0L38.3,47.1z"/>
		<polygon class="st25" points="31.9,43.9 31.8,40.1 29.6,40.9 29.6,43.1 		"/>
		<path class="st78" d="M39.9,42.1l0,1.1c0,1.2,1.1,2.2,2.4,2.2l11.3-0.1c2.4,0,3.5-0.6,4.2-2.4l1.2-0.5c0.5-0.2,0.6-0.9,0-1.2
			l-1.3-0.6c-0.8-1.8-1.9-2.4-4.3-2.3l-11.3,0.1c-1.3,0-2.3,1-2.3,2.3l0,1.1L39.9,42.1z"/>
		<path class="st25" d="M36.2,38.7l-0.6,0.6l-0.5-0.5c-0.1-0.1-0.4-0.1-0.5,0l-0.4,0.5l-0.6-0.5c-0.1-0.1-0.3-0.1-0.5,0l-0.5,0.6
			c0,0-0.3-0.4-0.7-0.3c-0.2,0.1-0.2,0.4-0.2,0.5l0,5c0,0.1,0,0.4,0.2,0.5c0.3,0.1,0.7-0.3,0.7-0.3l0.5,0.6c0.1,0.1,0.3,0.1,0.4,0
			l0.5-0.6l0.6,0.6c0.1,0.1,0.3,0.1,0.4,0l0.6-0.6l0.6,0.6c0.1,0.1,0.2,0,0.2-0.1l-0.1-6.3C36.5,38.7,36.3,38.6,36.2,38.7z"/>
		<path class="st25" d="M28.3,41.9l0,0.2c0,0.3,0.2,0.6,0.5,0.7l0.8,0.3l0-2.2l-0.8,0.3C28.5,41.3,28.3,41.6,28.3,41.9z"/>
		<g>
			<g>
				<path class="st3" d="M42.6,42.8l4.4,0c0.1,0,0.2,0.1,0.2,0.2c0,0.1-0.1,0.2-0.2,0.2l-4.4,0c-0.1,0-0.2-0.1-0.2-0.2
					C42.4,42.9,42.5,42.8,42.6,42.8z"/>
			</g>
			<g>
				<path class="st3" d="M45.6,41.7l0.2,0c0.1,0,0.2,0.1,0.2,0.2c0,0.1-0.1,0.2-0.2,0.2l-0.2,0c-0.1,0-0.2-0.1-0.2-0.2
					C45.4,41.8,45.5,41.7,45.6,41.7z"/>
			</g>
			<g>
				<path class="st3" d="M42.3,41.7l2.8,0c0.1,0,0.2,0.1,0.2,0.2s-0.1,0.2-0.2,0.2l-2.8,0c-0.1,0-0.2-0.1-0.2-0.2
					C42.1,41.8,42.2,41.7,42.3,41.7z"/>
			</g>
			<g>
				<path class="st3" d="M47.4,40.6l0.5,0c0.1,0,0.2,0.1,0.2,0.2c0,0.1-0.1,0.2-0.2,0.2l-0.5,0c-0.1,0-0.2-0.1-0.2-0.2
					C47.2,40.7,47.3,40.6,47.4,40.6z"/>
			</g>
			<g>
				<path class="st3" d="M42.4,40.7l4.5,0c0.1,0,0.2,0.1,0.2,0.2c0,0.1-0.1,0.2-0.2,0.2l-4.5,0c-0.1,0-0.2-0.1-0.2-0.2
					S42.3,40.7,42.4,40.7z"/>
			</g>
			<path class="st3" d="M46.9,43.1l0-0.4c0-0.2,0.2-0.4,0.4-0.4l4.2,0c0.2,0,0.4,0.2,0.4,0.4l0,0.4c0,0.2-0.2,0.4-0.4,0.4l-4.2,0
				C47.1,43.5,46.9,43.4,46.9,43.1z"/>
		</g>
		<path class="st25" d="M40.1,44.1l1.9-0.4c0.3-0.1,0.6-0.4,0.6-0.7l0-2.3c0-0.4-0.3-0.6-0.6-0.7l-2-0.3L40.1,44.1z"/>
		<path class="st25" d="M39.5,37.9l-1.6,0l-1.4,0.9l0.1,6.3L38,46l1.6,0c0.4,0,0.6-0.3,0.6-0.6l-0.1-6.9
			C40.1,38.2,39.8,37.9,39.5,37.9z"/>
	</g>
</g>
</svg>
